<svg version="1.1" id="Layer_1" xmlns="http://www.w3.org/2000/svg" xmlns:xlink="http://www.w3.org/1999/xlink" x="0px" y="0px"
	 width="100%" viewBox="0 0 1024 1024" enable-background="new 0 0 1024 1024" xml:space="preserve">
<path fill="#000000" opacity="1.000000" stroke="none" 
	d="
M369.549164,897.600342 
	C322.813202,880.166321 280.985535,855.232849 243.635254,822.774231 
	C198.800278,783.811096 164.483337,736.996399 139.762741,683.101624 
	C124.503319,649.833557 113.701645,615.120483 107.893936,578.971436 
	C103.372330,550.827637 101.524208,522.420166 102.844696,493.944092 
	C105.581688,434.921356 118.586090,378.136505 145.885925,325.655182 
	C201.105957,219.500046 286.984619,150.027023 401.963989,116.760521 
	C425.280090,110.014557 449.104279,105.829597 473.313080,103.440247 
	C497.933350,101.010292 522.548096,100.739281 547.097595,102.851883 
	C624.975037,109.553581 695.764099,135.730835 758.808411,182.076248 
	C805.378967,216.311401 842.567993,258.998138 871.231873,309.170074 
	C894.930786,350.651520 909.883972,395.240326 918.129395,442.118286 
	C923.304871,471.542511 924.582703,501.349060 923.177429,531.121277 
	C918.698914,626.006714 885.850037,710.046143 823.608398,781.819397 
	C762.102600,852.743958 684.685852,897.255859 592.718506,916.465820 
	C559.554321,923.393005 525.993896,924.607544 492.380402,923.073181 
	C450.299622,921.152161 409.402405,912.627502 369.549164,897.600342 
M329.993195,196.532333 
	C328.578735,197.411758 327.185089,198.326935 325.746796,199.165451 
	C267.065033,233.375793 222.636993,281.160004 190.418503,340.718689 
	C163.882126,389.773499 150.894363,442.416199 148.446854,497.821381 
	C147.402802,521.455750 149.030869,545.063416 152.634293,568.428833 
	C156.851532,595.774170 164.669098,622.167358 174.937225,647.894775 
	C200.010574,710.717712 239.471008,762.672791 293.233063,803.470398 
	C351.361176,847.581177 417.188263,872.031067 490.047333,876.424927 
	C515.939270,877.986328 541.987610,877.369385 567.752808,873.457947 
	C596.437927,869.103210 624.339355,861.708496 651.174866,850.542175 
	C706.928894,827.342896 755.048218,793.398865 793.528870,746.768127 
	C845.979492,683.208496 873.513611,609.693726 877.510071,527.501038 
	C878.901733,498.879272 876.644714,470.350098 871.365662,442.129852 
	C863.542542,400.310089 848.255615,361.371735 826.437073,324.876862 
	C794.118408,270.818726 750.951416,227.847992 696.298950,196.460922 
	C648.156921,168.812790 596.105347,153.966354 541.004028,149.492584 
	C513.555664,147.263992 486.108276,148.490341 458.885437,152.563965 
	C413.536438,159.349976 370.653046,173.611252 329.993195,196.532333 
z"/>
<path fill="#000000" opacity="1.000000" stroke="none" 
	d="
M567.446106,582.571777 
	C558.433472,575.136963 549.567322,568.078186 541.018738,560.653931 
	C538.164246,558.174866 535.815918,558.199036 532.529846,559.411865 
	C500.984192,571.054871 468.235870,553.758240 461.433746,520.905334 
	C457.177002,500.346161 464.409241,479.584656 485.048065,466.899933 
	C490.145630,463.766968 491.809662,460.573425 491.795502,454.704620 
	C491.591827,370.374481 491.648956,286.043732 491.674255,201.713104 
	C491.678040,189.124176 498.039581,180.967667 509.892303,179.244949 
	C520.681396,177.676849 532.228027,184.924759 533.315002,197.723541 
	C533.455627,199.378601 533.348145,201.055115 533.348145,202.721695 
	C533.348999,287.218964 533.385498,371.716309 533.251343,456.213379 
	C533.243958,460.897125 534.349548,463.586945 538.752380,465.978058 
	C557.748230,476.294647 568.601074,499.584839 564.544922,520.583984 
	C563.758301,524.656189 565.837952,526.764221 568.496155,528.953430 
	C585.597595,543.037476 602.664551,557.163330 619.765564,571.247925 
	C640.981812,588.721741 662.204041,606.188599 683.457520,623.617126 
	C691.051941,629.844788 693.000244,638.047607 690.727905,646.999146 
	C688.508545,655.742126 682.110718,660.610657 673.156677,661.804443 
	C666.835693,662.647095 661.318115,660.434875 656.543823,656.487183 
	C632.927856,636.959900 609.372742,617.359070 585.794006,597.786682 
	C579.772156,592.788086 573.742554,587.798828 567.446106,582.571777 
z"/>
<path fill="#000000" opacity="1.000000" stroke="none" 
	d="
M533.347168,808.000000 
	C533.347046,814.166199 533.384094,819.832642 533.338623,825.498474 
	C533.257690,835.583191 525.392700,844.418518 515.758606,845.309570 
	C504.372650,846.362671 495.126709,840.158691 492.807556,829.761597 
	C492.121796,826.687256 491.643677,823.564697 491.757721,820.357849 
	C492.236542,806.892334 490.604828,793.355164 492.694733,779.956848 
	C494.407990,768.973328 503.625000,762.715698 515.855347,763.676758 
	C525.487976,764.433594 533.240906,773.172729 533.331360,783.502197 
	C533.401367,791.500916 533.346497,799.500671 533.347168,808.000000 
z"/>
<path fill="#000000" opacity="1.000000" stroke="none" 
	d="
M844.602417,519.038696 
	C841.391052,528.176575 834.974304,532.544434 825.949890,532.754578 
	C812.809143,533.060730 799.637451,533.636536 786.523499,532.371704 
	C775.352417,531.294250 769.238464,523.149414 769.653076,510.568329 
	C769.957581,501.329498 778.155151,492.998199 787.918518,492.767975 
	C800.735474,492.465790 813.577820,492.339691 826.385620,492.798584 
	C839.553894,493.270386 847.394470,504.722595 844.602417,519.038696 
z"/>
<path fill="#000000" opacity="1.000000" stroke="none" 
	d="
M254.432648,523.131287 
	C250.212387,529.725220 244.497940,532.524109 237.021301,532.409729 
	C224.720123,532.221558 212.413956,532.385010 200.110153,532.336975 
	C189.274094,532.294617 180.950134,524.309753 180.668182,513.786865 
	C180.358383,502.225891 188.206863,493.061829 199.356766,492.770660 
	C212.150681,492.436554 224.974991,492.306732 237.758987,492.796082 
	C253.588181,493.401978 262.034821,510.308441 254.432648,523.131287 
z"/>
</svg>