<svg version="1.1" id="Layer_1" xmlns="http://www.w3.org/2000/svg" xmlns:xlink="http://www.w3.org/1999/xlink" x="0px" y="0px"
	 width="100%" viewBox="0 0 1024 1024" enable-background="new 0 0 1024 1024" xml:space="preserve">
<path fill="#000000" opacity="1.000000" stroke="none" 
	d="
M750.455444,697.902161 
	C751.636353,702.422302 750.232788,705.801514 747.345825,708.724792 
	C733.766052,722.474670 720.267395,736.305969 706.571045,749.938721 
	C700.141663,756.338074 693.185730,755.938660 686.513000,749.083984 
	C639.323364,700.607666 591.252136,653.007202 543.505981,605.083923 
	C531.628174,593.161987 519.612305,581.375610 507.865753,569.326233 
	C504.768616,566.149292 502.719788,566.334839 499.723114,569.351379 
	C454.045105,615.332397 408.295013,661.241882 362.547424,707.153809 
	C348.433746,721.318237 334.279877,735.442505 320.138916,749.579651 
	C313.742004,755.974915 307.412415,756.083069 301.026123,749.654846 
	C288.109711,736.653442 275.287292,723.558594 262.441956,710.486694 
	C255.582016,703.505859 255.488174,697.020874 262.378815,690.033691 
	C279.691956,672.478027 297.092560,655.008606 314.452148,637.498718 
	C349.877136,601.767029 385.292328,566.025696 420.726196,530.302795 
	C427.179810,523.796570 433.559845,517.206116 440.251373,510.951569 
	C443.902161,507.539154 443.811035,505.221802 440.228546,501.655792 
	C399.603790,461.217712 359.130829,420.627167 318.612915,380.081726 
	C300.120148,361.576416 281.604248,343.094208 263.126160,324.574249 
	C255.047180,316.476959 255.066513,310.466492 263.076813,302.332489 
	C275.002106,290.222961 286.917053,278.103180 298.866394,266.017456 
	C300.385437,264.481079 301.990295,262.996155 303.719055,261.706879 
	C308.575958,258.084656 313.108337,258.567505 317.958252,263.416016 
	C336.692963,282.145386 355.344666,300.957733 374.062042,319.704437 
	C407.020233,352.714325 439.996429,385.706299 472.982208,418.688629 
	C481.345734,427.051300 489.752350,435.371246 498.180847,443.668488 
	C502.779938,448.195984 503.176575,448.187195 507.745605,443.584747 
	C542.490723,408.585632 577.222168,373.572906 611.956238,338.562805 
	C636.599304,313.723969 661.230408,288.873291 685.887756,264.048676 
	C692.608582,257.282257 698.459229,257.804718 705.095337,264.701447 
	C717.916992,278.026703 731.074219,291.029083 744.097961,304.159729 
	C752.334351,312.463684 752.348755,316.485840 744.277893,324.659241 
	C736.786438,332.245972 729.405151,339.942200 721.863281,347.478088 
	C719.857727,349.482025 719.478455,351.307159 720.181763,354.125580 
	C725.141357,374.001068 709.969360,389.328003 690.157227,384.399658 
	C686.589661,383.512238 684.339233,384.134216 681.842529,386.708405 
	C667.227295,401.777191 652.491394,416.729401 637.724792,431.650330 
	C635.530518,433.867554 634.935669,436.358856 634.941284,439.330750 
	C635.006592,474.156555 635.014038,508.982452 635.011780,543.808350 
	C635.011658,545.410828 635.543274,547.133972 634.339600,548.559204 
	C632.843262,549.234497 632.174683,548.084473 631.391296,547.299866 
	C619.265930,535.154236 607.181335,522.967651 595.006348,510.872009 
	C592.596924,508.478302 591.441956,505.880432 591.554749,502.440460 
	C591.745789,496.614532 591.622375,490.777588 591.589661,484.945496 
	C591.581299,483.459656 591.682861,481.764893 589.899658,481.146271 
	C588.398621,480.625549 587.340271,481.804993 586.445068,482.702118 
	C579.150391,490.013092 571.978027,497.446838 564.638794,504.712372 
	C561.690063,507.631561 563.802368,509.306427 565.739380,511.236206 
	C581.556396,526.994202 597.383179,542.742554 613.166382,558.534363 
	C657.453186,602.844849 701.719971,647.175232 745.996643,691.495789 
	C747.773010,693.273926 749.409302,695.147827 750.455444,697.902161 
z"/>
<path fill="#000000" opacity="1.000000" stroke="none" 
	d="
M318.968567,785.175293 
	C313.222137,781.588196 307.471863,778.592529 303.321960,773.739380 
	C304.547607,771.381104 306.237244,771.950378 307.623657,771.970825 
	C320.252289,772.156677 330.971588,767.436707 339.019226,758.023193 
	C345.123444,750.882935 351.960571,748.791138 361.187134,748.846497 
	C425.339844,749.231445 489.495941,749.044617 553.650940,749.062073 
	C575.084961,749.067932 591.115601,733.778137 591.694458,712.338928 
	C591.900879,704.692627 591.290649,697.025940 591.132996,689.366943 
	C591.093262,687.438293 590.591492,685.343079 592.164368,683.775879 
	C593.429565,683.356445 594.152893,684.031982 594.872803,684.760925 
	C605.760498,695.785522 616.460938,707.005493 627.637451,717.729187 
	C632.063965,721.976257 633.068542,726.383728 632.026794,732.069458 
	C627.135315,758.766846 611.393860,776.551086 586.986633,787.232300 
	C576.457703,791.840088 565.441284,793.734497 553.881531,793.507263 
	C536.224731,793.160034 518.556335,793.388550 500.892822,793.406494 
	C494.580963,793.412903 494.076508,793.948914 494.075531,800.245850 
	C494.073120,815.742737 494.420532,831.248413 494.014008,846.734436 
	C493.415253,869.542847 476.018402,885.883179 453.523041,885.360535 
	C435.581207,884.943787 420.144196,871.597839 416.679169,853.696472 
	C414.757568,843.768860 415.865021,833.767639 415.629456,823.801514 
	C415.452332,816.307068 415.625427,808.804993 415.590485,801.306519 
	C415.557220,794.169006 414.764404,793.402832 407.442017,793.399597 
	C389.445251,793.391724 371.447205,793.282166 353.452179,793.463013 
	C341.345215,793.584656 330.038208,790.768372 318.968567,785.175293 
z"/>
<path fill="#000000" opacity="1.000000" stroke="none" 
	d="
M600.194336,63.575695 
	C605.375916,52.143723 613.961853,48.027210 627.482971,50.119740 
	C652.664734,54.016857 676.644470,61.847054 699.821045,72.266716 
	C732.108765,86.782539 761.838501,105.366631 788.112000,129.147293 
	C823.917603,161.555618 851.841858,199.748505 871.099121,244.154068 
	C882.027039,269.352692 889.255249,295.584869 892.924927,322.778076 
	C894.505005,334.487579 895.624634,346.260101 895.315735,358.114075 
	C894.987610,370.709259 886.310974,380.133820 874.103760,381.129822 
	C862.547546,382.072693 852.274353,373.732086 850.180908,361.530609 
	C848.939331,354.294006 849.550476,346.932800 848.836609,339.619537 
	C845.005188,300.370697 832.914368,263.848938 813.065491,229.911026 
	C780.551575,174.318314 733.799988,134.950516 674.774658,109.884117 
	C656.787720,102.245575 637.929626,97.377892 618.776550,93.603691 
	C603.068237,90.508293 596.195923,79.522957 600.194336,63.575695 
z"/>
<path fill="#000000" opacity="1.000000" stroke="none" 
	d="
M720.072632,185.899170 
	C757.983154,217.279541 784.079285,256.072418 797.610168,303.135132 
	C802.503845,320.156342 805.011414,337.590881 806.076233,355.240417 
	C806.853149,368.118805 802.067749,377.022858 792.091064,381.576965 
	C778.685425,387.696320 762.172852,377.413971 761.626282,362.665924 
	C759.410278,302.867401 733.941711,254.884125 687.448486,217.837204 
	C664.606445,199.636124 639.120728,186.735962 610.218689,180.910507 
	C595.557434,177.955444 588.341980,165.187454 592.647644,151.146271 
	C595.140869,143.015900 601.958801,138.037613 610.456848,137.582489 
	C620.992676,137.018234 630.964661,139.680435 640.798950,142.731888 
	C669.962708,151.781052 696.049316,166.603882 720.072632,185.899170 
z"/>
<path fill="#000000" opacity="1.000000" stroke="none" 
	d="
M318.075165,470.000000 
	C318.092743,511.990997 317.966858,553.483032 318.265594,594.972046 
	C318.317657,602.201721 316.360229,607.598145 311.095612,612.605103 
	C300.354828,622.820251 290.129364,633.577026 279.677917,644.097107 
	C278.532135,645.250427 277.550385,646.671814 275.164917,647.155518 
	C275.164917,553.656250 275.164917,460.404266 275.164917,367.105347 
	C276.808411,366.331940 277.562134,367.731232 278.437042,368.601898 
	C290.365967,380.472931 302.220062,392.419708 314.212708,404.225769 
	C317.042175,407.011230 318.172638,410.073669 318.145264,414.012390 
	C318.016693,432.507507 318.080566,451.003998 318.075165,470.000000 
z"/>
<path fill="#000000" opacity="1.000000" stroke="none" 
	d="
M469.000000,351.057892 
	C459.169617,351.046295 449.839203,351.018463 440.508881,351.033600 
	C437.589233,351.038330 434.975372,350.540894 432.765350,348.315247 
	C419.969849,335.429291 407.102539,322.614655 394.279114,309.756409 
	C393.836792,309.312866 393.601562,308.662811 393.277924,308.122528 
	C394.623840,305.994354 396.639343,306.710266 398.331116,306.708984 
	C459.479248,306.662903 520.627441,306.666565 581.775574,306.644928 
	C590.344299,306.641876 597.393494,310.367706 603.988892,314.955353 
	C603.886475,315.776886 603.968079,316.212555 603.788391,316.407867 
	C593.300903,327.808044 582.212463,338.613770 571.063049,349.356201 
	C568.951904,351.390320 566.132996,351.097046 563.471252,351.096283 
	C532.147522,351.087341 500.823761,351.071930 469.000000,351.057892 
z"/>
<path fill="#000000" opacity="1.000000" stroke="none" 
	d="
M498.000000,683.077515 
	C511.986084,683.090759 525.474487,682.949951 538.957642,683.155212 
	C556.525757,683.422546 567.214600,701.253845 558.659485,716.088562 
	C553.962646,724.233032 546.262512,727.173462 537.139282,727.165588 
	C494.683289,727.129211 452.227264,727.142151 409.771271,727.132751 
	C399.781677,727.130554 389.791809,727.141785 379.802673,727.069763 
	C377.895294,727.055969 375.754517,727.633789 374.251404,725.770386 
	C374.139313,723.749939 375.734619,722.849487 376.864532,721.710876 
	C388.121796,710.366516 399.533722,699.171753 410.607849,687.651978 
	C413.929688,684.196533 417.459442,682.980957 422.077667,683.005005 
	C447.217896,683.135986 472.359131,683.073303 498.000000,683.077515 
z"/>
<path fill="#000000" opacity="1.000000" stroke="none" 
	d="
M656.378296,263.375641 
	C649.810303,270.025848 643.434265,276.369354 637.187866,282.838074 
	C634.858093,285.250854 632.709351,285.795441 629.788818,283.770081 
	C619.028625,276.308105 607.182495,271.173157 594.750671,267.104523 
	C583.705200,263.489624 577.961670,255.407394 578.275574,245.350571 
	C578.750793,230.121857 591.639404,220.530304 606.535828,224.166306 
	C626.286499,228.987167 643.848145,238.190842 659.872681,250.508957 
	C664.898438,254.372314 664.863281,254.757217 660.465454,259.190491 
	C659.175293,260.491028 657.902527,261.808807 656.378296,263.375641 
z"/>
</svg>