<svg version="1.1" id="Layer_1" xmlns="http://www.w3.org/2000/svg" xmlns:xlink="http://www.w3.org/1999/xlink" x="0px" y="0px"
	 width="100%" viewBox="0 0 512 512" enable-background="new 0 0 512 512" xml:space="preserve">
<path fill="#000000" opacity="1.000000" stroke="none" 
	d="
M62.000000,1.000000 
	C191.689316,1.000000 321.378632,1.000000 451.533966,1.468657 
	C452.000000,11.536226 452.000000,21.135138 452.000000,31.114502 
	C441.743866,31.114502 431.999573,31.114502 423.272186,31.114502 
	C420.796265,47.705982 418.886353,63.860828 415.888672,79.811241 
	C411.310608,104.170959 401.917084,126.721451 388.782593,147.785782 
	C373.982513,171.521286 353.622711,190.184402 333.376404,208.895950 
	C324.553070,217.050491 315.903961,225.156113 309.212952,235.230804 
	C300.768555,247.945587 300.761414,266.015045 309.166840,278.725830 
	C316.029175,289.103088 324.975403,297.390839 334.041962,305.763153 
	C346.049194,316.850952 357.386932,328.674774 368.819550,340.370819 
	C380.800507,352.627808 390.499786,366.708923 397.778900,382.080597 
	C404.055908,395.336029 409.244385,409.246979 413.445770,423.306915 
	C417.895386,438.197357 420.481079,453.617035 421.048706,469.277679 
	C421.212585,473.799713 421.962036,478.300507 422.483185,483.187195 
	C432.325562,483.187195 442.065399,483.187195 452.000000,483.187195 
	C452.000000,493.388580 452.000000,503.194275 452.000000,513.000000 
	C322.310699,513.000000 192.621384,513.000000 62.466042,512.531372 
	C62.000000,502.463684 62.000000,492.864655 62.000000,482.885193 
	C72.256454,482.885193 82.000763,482.885193 90.727875,482.885193 
	C93.203789,466.293671 95.113586,450.138763 98.111351,434.188354 
	C102.689568,409.828705 112.082474,387.277893 125.217712,366.214020 
	C140.018463,342.479248 160.375900,323.813904 180.623718,305.103760 
	C189.447739,296.949860 198.096207,288.843689 204.787216,278.768982 
	C213.231705,266.054047 213.238647,247.985245 204.832977,235.274017 
	C197.970688,224.896698 189.024429,216.609024 179.957932,208.236710 
	C167.950729,197.148895 156.612900,185.325134 145.180344,173.629074 
	C133.199432,161.372040 123.500130,147.291000 116.221085,131.919281 
	C109.944168,118.663841 104.755562,104.752953 100.554176,90.693062 
	C96.104607,75.802620 93.518921,60.382954 92.951332,44.722294 
	C92.787445,40.200279 92.037979,35.699486 91.516861,30.812805 
	C81.674423,30.812805 71.934578,30.812805 62.000000,30.812805 
	C62.000000,20.611412 62.000000,10.805706 62.000000,1.000000 
M151.504150,101.000000 
	C226.946167,101.000000 302.388184,101.000000 377.374481,101.000000 
	C386.026947,78.278862 389.873993,55.117767 391.027557,31.324228 
	C301.431183,31.324228 212.251160,31.324228 122.927834,31.324228 
	C124.227333,55.348030 127.985504,78.540520 136.631821,101.000000 
	C141.199020,101.000000 145.852646,101.000000 151.504150,101.000000 
M291.967285,307.618347 
	C282.211456,297.304840 276.197723,284.934265 272.175446,271.502899 
	C272.175446,303.940369 272.175446,336.377838 272.175446,367.672974 
	C306.980377,381.928314 341.240295,395.960388 376.583649,410.436249 
	C373.596100,404.335266 371.191589,399.186829 368.583679,394.143555 
	C360.464813,378.443146 349.751495,364.552887 337.401978,352.074951 
	C322.628876,337.148285 307.183075,322.887421 291.967285,307.618347 
M242.000000,311.500000 
	C242.000000,298.490906 242.000000,285.481842 242.000000,271.873016 
	C241.013733,272.694733 240.400558,272.944489 240.327545,273.303925 
	C236.857101,290.389709 226.912292,303.609558 214.921936,315.522034 
	C205.273483,325.107819 195.782150,334.914917 185.484741,343.767212 
	C174.440414,353.261627 165.186279,364.210663 156.765213,375.885101 
	C149.225800,386.337189 142.409714,397.316498 138.146027,410.146301 
	C172.913010,395.903534 207.216705,381.850525 242.000000,367.601044 
	C242.000000,349.808960 242.000000,331.154480 242.000000,311.500000 
z"/>
<path fill="#FFFFFF" opacity="1.000000" stroke="none" 
	d="
M61.531342,1.000000 
	C62.000000,10.805706 62.000000,20.611412 62.000000,30.812805 
	C71.934578,30.812805 81.674423,30.812805 91.516861,30.812805 
	C92.037979,35.699486 92.787445,40.200279 92.951332,44.722294 
	C93.518921,60.382954 96.104607,75.802620 100.554176,90.693062 
	C104.755562,104.752953 109.944168,118.663841 116.221085,131.919281 
	C123.500130,147.291000 133.199432,161.372040 145.180344,173.629074 
	C156.612900,185.325134 167.950729,197.148895 179.957932,208.236710 
	C189.024429,216.609024 197.970688,224.896698 204.832977,235.274017 
	C213.238647,247.985245 213.231705,266.054047 204.787216,278.768982 
	C198.096207,288.843689 189.447739,296.949860 180.623718,305.103760 
	C160.375900,323.813904 140.018463,342.479248 125.217712,366.214020 
	C112.082474,387.277893 102.689568,409.828705 98.111351,434.188354 
	C95.113586,450.138763 93.203789,466.293671 90.727875,482.885193 
	C82.000763,482.885193 72.256454,482.885193 62.000000,482.885193 
	C62.000000,492.864655 62.000000,502.463684 62.000000,512.531372 
	C41.680706,513.000000 21.361410,513.000000 1.047071,513.000000 
	C1.052028,342.333313 1.052028,171.666656 1.052028,1.000000 
	C21.090265,1.000000 41.076473,1.000000 61.531342,1.000000 
z"/>
<path fill="#FFFFFF" opacity="1.000000" stroke="none" 
	d="
M452.468658,513.000000 
	C452.000000,503.194275 452.000000,493.388580 452.000000,483.187195 
	C442.065399,483.187195 432.325562,483.187195 422.483185,483.187195 
	C421.962036,478.300507 421.212585,473.799713 421.048706,469.277679 
	C420.481079,453.617035 417.895386,438.197357 413.445770,423.306915 
	C409.244385,409.246979 404.055908,395.336029 397.778900,382.080597 
	C390.499786,366.708923 380.800507,352.627808 368.819550,340.370819 
	C357.386932,328.674774 346.049194,316.850952 334.041962,305.763153 
	C324.975403,297.390839 316.029175,289.103088 309.166840,278.725830 
	C300.761414,266.015045 300.768555,247.945587 309.212952,235.230804 
	C315.903961,225.156113 324.553070,217.050491 333.376404,208.895950 
	C353.622711,190.184402 373.982513,171.521286 388.782593,147.785782 
	C401.917084,126.721451 411.310608,104.170959 415.888672,79.811241 
	C418.886353,63.860828 420.796265,47.705982 423.272186,31.114502 
	C431.999573,31.114502 441.743866,31.114502 452.000000,31.114502 
	C452.000000,21.135138 452.000000,11.536226 452.000000,1.468657 
	C472.319305,1.000000 492.638580,1.000000 512.952881,1.000003 
	C512.947876,171.666672 512.947876,342.333344 512.947876,513.000000 
	C492.909637,513.000000 472.923492,513.000000 452.468658,513.000000 
z"/>
<path fill="#FFFFFF" opacity="1.000000" stroke="none" 
	d="
M151.005203,101.000000 
	C145.852646,101.000000 141.199020,101.000000 136.631821,101.000000 
	C127.985504,78.540520 124.227333,55.348030 122.927834,31.324228 
	C212.251160,31.324228 301.431183,31.324228 391.027557,31.324228 
	C389.873993,55.117767 386.026947,78.278862 377.374481,101.000000 
	C302.388184,101.000000 226.946167,101.000000 151.005203,101.000000 
z"/>
<path fill="#FFFFFF" opacity="1.000000" stroke="none" 
	d="
M291.997955,307.978271 
	C307.183075,322.887421 322.628876,337.148285 337.401978,352.074951 
	C349.751495,364.552887 360.464813,378.443146 368.583679,394.143555 
	C371.191589,399.186829 373.596100,404.335266 376.583649,410.436249 
	C341.240295,395.960388 306.980377,381.928314 272.175446,367.672974 
	C272.175446,336.377838 272.175446,303.940369 272.175446,271.502899 
	C276.197723,284.934265 282.211456,297.304840 291.997955,307.978271 
z"/>
<path fill="#FFFFFF" opacity="1.000000" stroke="none" 
	d="
M242.000000,312.000000 
	C242.000000,331.154480 242.000000,349.808960 242.000000,367.601044 
	C207.216705,381.850525 172.913010,395.903534 138.146027,410.146301 
	C142.409714,397.316498 149.225800,386.337189 156.765213,375.885101 
	C165.186279,364.210663 174.440414,353.261627 185.484741,343.767212 
	C195.782150,334.914917 205.273483,325.107819 214.921936,315.522034 
	C226.912292,303.609558 236.857101,290.389709 240.327545,273.303925 
	C240.400558,272.944489 241.013733,272.694733 242.000000,271.873016 
	C242.000000,285.481842 242.000000,298.490906 242.000000,312.000000 
z"/>
</svg>