<svg version="1.1" id="Layer_1" xmlns="http://www.w3.org/2000/svg" xmlns:xlink="http://www.w3.org/1999/xlink" x="0px" y="0px"
	 width="100%" viewBox="0 0 1024 1024" enable-background="new 0 0 1024 1024" xml:space="preserve">
<path fill="#000000" opacity="1.000000" stroke="none" 
	d="
M250.510864,451.670990 
	C268.727661,402.282257 301.562683,366.462494 347.929810,342.838989 
	C351.656921,340.940094 354.350922,338.589996 356.284485,334.798370 
	C366.268219,315.220886 376.040985,295.530670 386.845612,276.505157 
	C386.100647,274.445831 384.169189,274.351410 382.834045,273.496124 
	C376.938080,269.719147 373.602234,264.588562 373.636292,257.403625 
	C373.697144,244.573257 373.605988,231.742142 373.670593,218.911804 
	C373.713257,210.445114 379.896210,203.100128 388.210510,201.741211 
	C391.641693,201.180389 395.155609,200.893646 398.632965,200.884384 
	C424.460663,200.815598 450.288757,200.816727 476.116455,200.885620 
	C479.594849,200.894897 483.107086,201.182922 486.542755,201.726746 
	C495.537323,203.150497 501.297424,209.951569 501.336243,219.024139 
	C501.384003,230.188278 500.866028,241.380188 501.493225,252.509338 
	C502.108398,263.425232 498.789459,271.459106 487.940033,275.681885 
	C493.623413,286.189362 499.235016,296.343781 504.633057,306.610504 
	C509.359467,315.599854 514.011536,324.636719 518.367065,333.808960 
	C520.477661,338.253601 523.481628,341.090363 527.916809,343.324951 
	C569.397339,364.224243 600.006042,395.839508 619.942017,437.762115 
	C622.643372,443.442719 624.851501,449.357880 627.765869,456.303253 
	C629.182861,447.764099 630.322083,440.342102 631.656982,432.955475 
	C636.207153,407.777313 643.322266,383.416901 655.931396,360.992737 
	C663.288208,347.909302 673.553040,338.484955 689.509216,337.350220 
	C702.896057,336.398163 713.808044,341.601318 723.153381,350.748322 
	C732.856934,360.245941 739.283997,371.899353 744.736877,384.121307 
	C755.179382,407.526703 760.965942,432.179474 764.423401,457.500977 
	C767.017334,476.497833 768.207581,495.583557 768.062683,514.695862 
	C767.762695,554.258179 764.068420,593.403687 750.193665,630.889954 
	C743.862366,647.995544 736.188049,664.426758 722.702576,677.336426 
	C707.806641,691.596375 688.709595,694.501587 672.342773,685.017456 
	C665.996094,681.339661 661.226685,676.045288 657.435120,669.845703 
	C644.946960,649.426331 637.681641,627.032349 632.718384,603.804932 
	C631.091919,596.193237 629.891052,588.490723 628.285034,579.673828 
	C626.536377,584.284729 625.205505,587.942444 623.769531,591.558350 
	C605.440002,637.712036 573.896912,672.100952 530.555237,695.871704 
	C526.571472,698.056641 523.791016,700.705872 521.762329,704.820618 
	C513.221863,722.143433 504.365295,739.310303 495.651276,756.547791 
	C494.465424,758.893555 493.430908,761.315918 492.154297,764.074341 
	C501.351807,769.054199 502.839661,777.091797 502.443848,786.351746 
	C501.995972,796.830322 501.811676,807.377686 502.496124,817.830750 
	C503.155243,827.897095 494.905701,838.126099 482.480042,838.229248 
	C452.655060,838.476929 422.825226,838.462585 393.000153,838.213684 
	C381.349701,838.116455 372.995239,829.347778 372.818787,817.671143 
	C372.640045,805.843506 372.757843,794.009521 372.883179,782.179810 
	C372.958466,775.076050 375.574036,769.127808 381.923523,765.430969 
	C384.256500,764.072632 384.330566,762.658020 383.266785,760.552063 
	C373.432190,741.082642 363.615875,721.604065 353.828400,702.110901 
	C352.844238,700.150818 351.074707,699.327148 349.295074,698.402832 
	C293.506805,669.428406 257.822815,624.486633 244.144119,563.119385 
	C235.820877,525.778381 237.780319,488.476868 250.510864,451.670990 
M292.286957,619.252502 
	C324.404083,664.979248 368.684906,690.181641 423.940460,695.395386 
	C457.469299,698.559021 489.587463,691.765686 519.397217,675.760986 
	C589.671753,638.031128 624.845520,566.143127 611.281067,488.380737 
	C603.603149,444.364777 581.630188,408.440338 545.735413,381.679596 
	C500.809937,348.186127 450.111328,338.951019 396.196320,350.977570 
	C305.366272,371.238464 251.363602,454.149933 263.608124,545.263916 
	C267.176544,571.817383 276.785278,596.384216 292.286957,619.252502 
M710.957764,579.113098 
	C708.157227,603.271240 703.284851,626.971008 695.194702,649.949158 
	C693.338074,655.222412 691.315430,660.437195 689.180664,666.186523 
	C693.071899,667.054382 696.234497,666.841187 699.376770,665.496155 
	C705.044739,663.070251 709.529663,659.210083 713.160156,654.282227 
	C719.435913,645.763916 723.946838,636.315369 727.649963,626.470947 
	C739.137146,595.934082 743.278809,564.000549 744.510254,531.703064 
	C745.575500,503.767517 744.727722,475.831299 739.654480,448.190552 
	C735.460632,425.341431 729.264465,403.159027 718.114868,382.608398 
	C714.264221,375.511169 709.610107,369.012146 702.658813,364.597626 
	C698.726990,362.100616 694.542358,360.167633 689.251770,362.244751 
	C693.263245,371.845551 696.679688,381.368500 699.428406,391.123749 
	C709.916504,428.346069 712.926880,466.553925 714.191650,504.951050 
	C714.997986,529.429688 713.409973,553.853577 710.957764,579.113098 
M677.684509,628.337219 
	C685.588379,601.570740 689.542480,574.080261 690.412842,546.331238 
	C691.236389,520.073608 691.422363,493.755402 688.870728,467.481720 
	C686.925354,447.450256 684.295959,427.580261 679.592407,408.020203 
	C677.561218,399.573456 675.290894,391.152985 671.115295,382.544006 
	C669.993225,385.026947 669.197388,386.647003 668.517090,388.314209 
	C654.094177,423.656067 649.940125,460.934143 648.486511,498.574249 
	C647.555603,522.678345 648.514709,546.793701 651.203613,570.833374 
	C653.673645,592.916504 658.421814,614.397400 666.262878,635.181458 
	C667.529602,638.539124 668.620911,642.056824 671.423340,645.058228 
	C675.095093,640.111511 675.563843,634.321350 677.684509,628.337219 
M470.948456,753.527588 
	C477.935333,739.780090 484.922241,726.032654 492.217682,711.678040 
	C474.434875,715.597961 457.182434,718.353210 439.504547,718.518494 
	C421.684326,718.685120 404.188995,716.557068 386.199249,712.674194 
	C386.737061,714.408508 386.899445,715.380432 387.320465,716.223206 
	C394.676910,730.949341 402.121552,745.631836 409.395355,760.398438 
	C410.740326,763.128845 412.665314,763.687012 415.399628,763.668640 
	C428.541779,763.580200 441.719513,763.045715 454.814819,763.831909 
	C462.997894,764.323120 468.198090,762.093933 470.948456,753.527588 
M401.685150,325.804230 
	C405.642365,325.362213 409.602264,324.942841 413.556335,324.474274 
	C431.970703,322.292114 450.342834,322.673035 468.663483,325.451935 
	C475.483124,326.486359 482.275208,327.702606 489.785034,328.953369 
	C480.734772,311.714661 472.012695,295.103699 463.294067,278.490845 
	C462.156555,276.323364 460.138000,276.352173 458.105042,276.351929 
	C444.286285,276.350098 430.466614,276.418854 416.649414,276.267914 
	C413.529816,276.233826 411.828827,277.393402 410.465698,280.115906 
	C402.942932,295.140900 395.267548,310.089478 387.679565,325.081970 
	C387.202026,326.025543 386.146545,327.005463 387.508087,328.529938 
	C391.813049,327.709991 396.322906,326.851044 401.685150,325.804230 
M466.531708,815.572083 
	C469.358521,815.563354 472.185455,815.534241 475.012115,815.551208 
	C478.316895,815.571106 479.772949,814.098816 479.684631,810.662415 
	C479.513794,804.015198 479.536865,797.359192 479.653412,790.709961 
	C479.710083,787.476135 478.381500,786.213745 475.187683,786.352966 
	C471.536194,786.512146 467.872650,786.397278 464.214325,786.397095 
	C443.262115,786.396240 422.309875,786.379639 401.357727,786.415344 
	C399.332062,786.418823 396.483887,785.696045 396.422028,789.000427 
	C396.261047,797.600708 396.367920,806.205994 396.367920,815.568542 
	C419.791534,815.568542 442.681183,815.568542 466.531708,815.572083 
M423.500000,252.761505 
	C440.131012,252.758179 456.762634,252.680893 473.392639,252.807816 
	C477.163422,252.836609 478.863770,251.726913 478.709686,247.694687 
	C478.468567,241.384109 478.535034,235.054794 478.692383,228.738922 
	C478.771515,225.562515 477.694061,224.296204 474.396301,224.307373 
	C449.782806,224.390732 425.168732,224.377792 400.555145,224.299469 
	C397.250183,224.288956 396.221100,225.671249 396.299316,228.813385 
	C396.456482,235.129318 396.571655,241.462463 396.270905,247.767838 
	C396.074066,251.894089 397.801025,252.934174 401.546478,252.829041 
	C408.526093,252.633102 415.514984,252.765488 423.500000,252.761505 
z"/>
<path fill="#000000" opacity="1.000000" stroke="none" 
	d="
M739.117310,151.754608 
	C791.839844,180.114929 825.361938,222.824966 838.693665,281.034760 
	C841.374451,292.739838 842.701111,304.605103 842.459167,316.627075 
	C842.339111,322.590607 838.483582,326.866333 832.813843,327.346039 
	C825.793640,327.939972 820.591797,324.397308 819.704468,318.004517 
	C818.244751,307.487671 818.079163,296.846222 815.859131,286.375061 
	C808.114014,249.843735 789.646667,219.731186 761.686462,195.366669 
	C734.542175,171.713181 702.797363,158.395370 667.084229,154.133652 
	C661.763184,153.498688 656.456787,153.651169 651.171936,153.091202 
	C643.271423,152.254059 639.353394,148.045624 639.663269,140.861176 
	C639.929626,134.687485 644.196289,130.795181 650.846069,130.646988 
	C672.370728,130.167267 693.158203,134.217499 713.488464,140.950592 
	C722.190308,143.832535 730.652893,147.327545 739.117310,151.754608 
z"/>
<path fill="#000000" opacity="1.000000" stroke="none" 
	d="
M781.710571,327.337402 
	C773.130066,327.321167 769.507568,324.569000 768.590820,316.605499 
	C766.928467,302.165375 764.328918,287.974579 757.995911,274.787872 
	C739.953186,237.219254 710.174194,214.696915 669.486206,206.388153 
	C663.633179,205.192917 657.720154,204.451187 651.716736,204.273819 
	C645.186035,204.080902 640.574829,200.326630 639.728943,195.029083 
	C638.483643,187.231201 643.158691,181.675217 651.134888,181.553970 
	C668.500671,181.290024 685.276428,184.673035 701.234619,191.195694 
	C749.940308,211.103485 779.516357,247.095810 790.014954,298.644897 
	C791.136414,304.150970 791.623901,309.814209 791.380859,315.509857 
	C791.105164,321.969574 788.528564,325.432678 781.710571,327.337402 
z"/>
<path fill="#000000" opacity="1.000000" stroke="none" 
	d="
M716.616577,313.250732 
	C711.953674,288.561920 698.670776,270.985809 676.032593,260.801544 
	C668.559021,257.439392 660.643616,255.655502 652.408752,255.297287 
	C642.680237,254.874115 637.053040,247.327957 640.312927,239.251236 
	C642.155945,234.684982 646.253967,232.130096 651.930603,232.358017 
	C675.086487,233.287659 695.326477,241.426163 712.373840,257.201019 
	C727.564331,271.257660 736.627747,288.640045 740.011108,309.005371 
	C740.362610,311.121033 740.333496,313.316315 740.317566,315.473450 
	C740.272644,321.566040 736.342896,326.518677 731.028198,327.305145 
	C724.368347,328.290649 719.744385,325.414154 717.554871,319.041077 
	C716.950073,317.280609 716.602661,315.521057 716.616577,313.250732 
z"/>
<path fill="#000000" opacity="1.000000" stroke="none" 
	d="
M421.430176,673.077026 
	C400.437653,670.441406 380.989105,664.384155 363.025696,654.097595 
	C321.385651,630.252869 294.856232,594.995544 285.857391,547.744019 
	C276.762238,499.986755 288.942444,457.162140 320.517029,420.485931 
	C343.908264,393.315247 374.182831,376.891052 409.501648,370.915283 
	C450.656342,363.952057 489.448364,371.098175 524.364502,394.536987 
	C560.516357,418.805267 583.272034,452.483551 590.330750,495.653595 
	C598.407471,545.049866 584.182617,588.065247 550.361328,624.658936 
	C527.844971,649.020996 500.045044,664.102539 467.597046,670.827942 
	C452.456329,673.966064 437.188934,673.711975 421.430176,673.077026 
M565.883423,490.387726 
	C560.538757,467.793274 549.857971,447.898682 533.409668,431.704620 
	C495.812836,394.688965 450.824829,383.562988 400.181793,397.068939 
	C332.544647,415.107117 292.957397,484.083893 310.175354,551.836182 
	C326.664856,616.722168 394.601196,661.822327 462.819824,647.945984 
	C533.931335,633.481201 583.459961,563.885925 565.883423,490.387726 
z"/>
<path fill="#000000" opacity="1.000000" stroke="none" 
	d="
M334.693970,509.996216 
	C334.695038,495.335663 334.653107,481.174072 334.709930,467.012878 
	C334.775177,450.756622 343.921051,441.658539 360.148712,441.655243 
	C412.462708,441.644653 464.776703,441.644012 517.090698,441.657196 
	C531.797546,441.660919 540.698730,448.973816 541.521790,463.452087 
	C542.665283,483.567810 542.600647,503.770813 541.563599,523.888306 
	C540.813416,538.440369 531.289062,546.191589 516.205505,546.198608 
	C465.724182,546.221924 415.242889,546.202881 364.761566,546.184448 
	C361.934875,546.183411 359.061676,546.342590 356.289520,545.913879 
	C342.660583,543.806213 335.240417,535.347656 334.733185,521.489990 
	C334.599182,517.829529 334.701050,514.160461 334.693970,509.996216 
M365.050995,464.403320 
	C358.210815,464.513916 358.214081,464.513916 358.212128,471.172516 
	C358.207642,486.493134 358.292877,501.814789 358.128662,517.133728 
	C358.086731,521.046997 359.014465,522.740540 363.381165,522.729065 
	C413.339539,522.597717 463.298462,522.607910 513.256897,522.717529 
	C517.384094,522.726562 518.772278,521.406250 518.722961,517.270325 
	C518.540466,501.951813 518.660278,486.629852 518.651733,471.309174 
	C518.647888,464.427429 518.631958,464.398407 511.819489,464.397614 
	C463.193024,464.391998 414.566589,464.399139 365.050995,464.403320 
z"/>
<path fill="#000000" opacity="1.000000" stroke="none" 
	d="
M448.662659,502.080994 
	C446.385376,508.369324 442.379181,511.309753 437.091461,510.869904 
	C431.981049,510.444794 427.581451,506.452454 426.970184,500.750977 
	C426.458282,495.976532 426.451019,491.071930 426.903381,486.289581 
	C427.457581,480.430237 431.664612,476.836151 437.155548,476.665161 
	C443.668976,476.462372 447.222046,478.995117 448.611267,485.302307 
	C449.802795,490.711914 449.432251,496.212372 448.662659,502.080994 
z"/>
<path fill="#000000" opacity="1.000000" stroke="none" 
	d="
M497.305725,484.211548 
	C498.679871,490.060059 498.438110,495.580048 497.759155,501.016205 
	C497.003632,507.065369 492.068024,511.163177 486.530273,510.984039 
	C480.852875,510.800323 476.124969,506.050629 475.751740,499.839325 
	C475.522247,496.020660 475.619202,492.176758 475.695221,488.346649 
	C475.815277,482.301086 479.179688,477.694763 484.027252,476.760345 
	C490.299988,475.551178 494.209229,477.634705 497.305725,484.211548 
z"/>
<path fill="#000000" opacity="1.000000" stroke="none" 
	d="
M379.364746,503.950317 
	C378.106964,497.460175 378.485474,491.288940 378.837219,485.183228 
	C379.146637,479.812164 383.816711,476.548492 389.826508,476.662415 
	C395.599396,476.771881 399.869476,480.397369 400.241302,485.954163 
	C400.529388,490.258972 400.354950,494.597076 400.328156,498.919983 
	C400.288452,505.324860 397.638947,509.045319 392.209930,510.425598 
	C386.712372,511.823303 382.918549,509.999207 379.364746,503.950317 
z"/>
</svg>