<svg version="1.1" id="Layer_1" xmlns="http://www.w3.org/2000/svg" xmlns:xlink="http://www.w3.org/1999/xlink" x="0px" y="0px"
	 width="100%" viewBox="0 0 1024 1024" enable-background="new 0 0 1024 1024" xml:space="preserve">
<path fill="#000000" opacity="1.000000" stroke="none" 
	d="
M579.348755,623.000122 
	C579.348450,659.827087 579.363525,696.153992 579.343262,732.480896 
	C579.323486,767.943481 552.798096,798.899963 517.749023,804.219421 
	C505.678009,806.051392 493.483612,805.187134 481.339935,805.278564 
	C470.675781,805.358948 460.005981,805.471863 449.347870,805.203979 
	C444.843048,805.090881 443.214661,806.351746 443.331299,811.106934 
	C443.751862,828.255066 443.972687,845.414734 443.867523,862.567566 
	C443.725250,885.771484 431.278534,903.791016 411.340851,910.347046 
	C379.527252,920.808228 347.815643,897.897705 347.743530,864.370056 
	C347.705170,846.539978 347.611084,828.708130 347.830048,810.880676 
	C347.884369,806.459595 346.476074,805.156982 342.114258,805.207703 
	C324.619812,805.411316 307.121460,805.272461 289.624573,805.272278 
	C255.221298,805.271912 229.106888,787.583740 216.789719,755.520752 
	C214.051254,748.392273 212.686539,740.786804 212.685211,733.069580 
	C212.665985,620.922729 212.642609,508.775909 212.690796,396.629089 
	C212.704742,364.173035 237.720947,334.490967 269.715088,328.689972 
	C276.106018,327.531158 282.554077,326.873566 289.051239,326.873596 
	C360.371826,326.874115 431.692627,326.798218 503.012909,326.951508 
	C531.303589,327.012299 554.129639,337.978271 569.351257,362.482697 
	C575.862244,372.964417 579.330811,384.585449 579.335205,397.040955 
	C579.361511,472.194000 579.348511,547.347046 579.348755,623.000122 
M254.320938,418.499939 
	C254.325821,522.630127 254.488937,626.760864 254.171722,730.890076 
	C254.121887,747.250305 267.390015,764.555847 287.712616,764.586243 
	C359.853668,764.694153 431.995117,764.650635 504.136261,764.563843 
	C523.043579,764.541077 537.643921,749.713257 537.645935,730.855164 
	C537.657654,620.560303 537.657471,510.265442 537.643677,399.970581 
	C537.641357,381.738831 524.363831,368.336823 506.199890,368.330109 
	C432.558929,368.302826 358.917938,368.317047 285.276978,368.343842 
	C270.555908,368.349213 258.784424,377.724670 255.296402,392.130341 
	C253.266556,400.513733 254.781464,409.048035 254.320938,418.499939 
z"/>
<path fill="#000000" opacity="1.000000" stroke="none" 
	d="
M606.967651,104.763329 
	C644.084656,115.304741 677.978088,131.516647 708.546143,154.502258 
	C757.862793,191.585861 793.841431,238.682846 815.380981,296.655975 
	C824.932617,322.363892 830.547180,348.870819 832.512634,376.226959 
	C832.918457,381.875061 833.339722,387.499664 833.340088,393.156250 
	C833.340881,405.768921 824.997009,414.501709 812.773804,414.710510 
	C801.258667,414.907196 792.172485,405.839478 791.645386,393.841187 
	C789.862305,353.254669 780.443909,314.684875 761.321411,278.635468 
	C736.947449,232.685989 702.017761,196.993103 657.155701,170.875229 
	C630.310730,155.246567 601.606934,144.570175 571.173523,138.418655 
	C558.265198,135.809494 551.182739,125.270752 553.912537,113.165535 
	C556.418152,102.054581 567.198425,95.871346 579.431335,98.286552 
	C588.559875,100.088844 597.606506,102.193352 606.967651,104.763329 
z"/>
<path fill="#000000" opacity="1.000000" stroke="none" 
	d="
M598.682617,189.103699 
	C660.083435,212.970245 705.352173,253.599808 731.979065,313.911255 
	C741.225464,334.854950 746.800842,356.849945 748.476196,379.796295 
	C748.826843,384.599121 749.427795,389.377167 749.346985,394.205872 
	C749.157654,405.522888 740.238464,414.325012 728.896057,414.379303 
	C716.922058,414.436615 708.169128,406.102600 707.635498,394.479156 
	C703.744446,309.729248 646.010010,245.814667 573.916931,224.163971 
	C570.269226,223.068497 566.500427,222.380676 562.798767,221.459824 
	C549.783691,218.222153 543.033936,208.016205 545.875366,195.901794 
	C548.528137,184.591721 559.890686,178.306015 572.540894,181.226730 
	C581.296204,183.248169 589.838684,186.002808 598.682617,189.103699 
z"/>
<path fill="#000000" opacity="1.000000" stroke="none" 
	d="
M622.357178,381.579773 
	C614.202759,347.377716 594.659241,323.011139 562.795471,308.829285 
	C559.632019,307.421295 556.201294,306.503265 552.808594,305.740448 
	C539.091736,302.656433 533.225159,291.526886 536.177307,279.041199 
	C538.877563,267.620789 551.080444,261.732452 563.784241,265.442108 
	C597.061157,275.159454 623.200256,294.809448 642.759949,323.262451 
	C656.034180,342.572174 663.676514,363.929291 665.430481,387.386169 
	C666.502991,401.728699 662.038574,410.108887 651.041016,413.427948 
	C638.003052,417.362793 624.673584,408.447418 623.787903,394.862976 
	C623.505981,390.538971 622.959595,386.272980 622.357178,381.579773 
z"/>
<path fill="#000000" opacity="1.000000" stroke="none" 
	d="
M294.084381,699.197327 
	C298.877930,693.982727 304.598297,691.672913 311.232910,691.670654 
	C367.705200,691.651733 424.177490,691.648499 480.649780,691.683350 
	C490.102936,691.689148 497.602020,696.644653 500.684174,704.652100 
	C504.001709,713.271118 501.919220,722.319702 495.140961,728.297852 
	C491.383850,731.611572 486.948944,733.356873 481.914459,733.357910 
	C424.609253,733.369202 367.303955,733.408264 309.998901,733.314392 
	C302.066010,733.301392 295.795807,729.555359 292.102753,722.511536 
	C287.971497,714.631958 288.542236,706.801880 294.084381,699.197327 
z"/>
</svg>